<?xml version="1.0" encoding="UTF-8" standalone="no"?>
<!-- Created with Inkscape (http://www.inkscape.org/) -->

<svg
   width="210mm"
   height="297mm"
   viewBox="0 0 210 297"
   version="1.1"
   id="svg7482"
   inkscape:version="1.1.1 (3bf5ae0, 2021-09-20)"
   sodipodi:docname="eslabón.svg"
   xmlns:inkscape="http://www.inkscape.org/namespaces/inkscape"
   xmlns:sodipodi="http://sodipodi.sourceforge.net/DTD/sodipodi-0.dtd"
   xmlns="http://www.w3.org/2000/svg"
   xmlns:svg="http://www.w3.org/2000/svg">
  <sodipodi:namedview
     id="namedview7484"
     pagecolor="#ffffff"
     bordercolor="#666666"
     borderopacity="1.0"
     inkscape:pageshadow="2"
     inkscape:pageopacity="0.0"
     inkscape:pagecheckerboard="0"
     inkscape:document-units="mm"
     showgrid="false"
     inkscape:snap-smooth-nodes="true"
     inkscape:snap-intersection-paths="true"
     inkscape:snap-midpoints="true"
     showguides="true"
     inkscape:guide-bbox="true"
     inkscape:zoom="0.94786756"
     inkscape:cx="465.78237"
     inkscape:cy="399.84489"
     inkscape:window-width="1920"
     inkscape:window-height="1043"
     inkscape:window-x="1366"
     inkscape:window-y="0"
     inkscape:window-maximized="1"
     inkscape:current-layer="layer1" />
  <defs
     id="defs7479" />
  <g
     inkscape:label="Layer 1"
     inkscape:groupmode="layer"
     id="layer1">
    <path
       id="path7508"
       style="fill:#87decd;stroke:#000000;stroke-width:3.00094;stroke-opacity:1;paint-order:markers stroke fill"
       d="M 208.18555 420.99414 A 82.876008 85.657236 0 0 0 125.30859 506.65234 A 82.876008 85.657236 0 0 0 208.18555 592.30859 L 615.37109 592.30859 L 615.37109 592.30664 A 82.876008 85.657236 0 0 0 615.43164 592.30859 A 82.876008 85.657236 0 0 0 698.30664 506.65234 A 82.876008 85.657236 0 0 0 615.43164 420.99414 A 82.876008 85.657236 0 0 0 615.37109 420.99609 L 615.37109 420.99414 L 208.24414 420.99414 A 82.876008 85.657236 0 0 0 208.18555 420.99414 z "
       transform="scale(0.26458333)" />
    <ellipse
       style="fill:#ffffff;stroke:#000000;stroke-width:0.793999;stroke-opacity:1;paint-order:markers stroke fill"
       id="path8147-5"
       cx="162.83287"
       cy="134.64554"
       rx="7.7237554"
       ry="7.5780625" />
    <ellipse
       style="fill:#ffffff;stroke:#000000;stroke-width:0.793999;stroke-opacity:1;paint-order:markers stroke fill"
       id="path8147"
       cx="55.082184"
       cy="134.64554"
       rx="7.7237554"
       ry="7.5780625" />
  </g>
</svg>
